<svg xmlns="http://www.w3.org/2000/svg" viewBox="0 0 64 64"><defs><style>.cls-1,.cls-3,.cls-4{fill:none;}.cls-2{fill:#ccc;}.cls-3,.cls-4{stroke:#191919;stroke-linecap:round;stroke-linejoin:round;}.cls-3{stroke-width:3px;}.cls-4{stroke-width:2px;}</style></defs><g id="Layer_2" data-name="Layer 2"><g id="Layer_3" data-name="Layer 3"><rect class="cls-1" width="64" height="64"/></g><g id="Laag_1" data-name="Laag 1"><path class="cls-2" d="M49.69,57.32a39,39,0,0,0-4.34,3.52V28.64l5.46-3.16L54,55.56A30.33,30.33,0,0,0,49.69,57.32Z"/><path class="cls-2" d="M50.81,25.48C45,31.16,34.26,39.24,32.15,41a1.71,1.71,0,0,1-2,.19c-2.54-1.38-8.9-4.87-10.28-5.44-1.73-.7-1.95-3.91-1.95-3.91l10.92,6.31c3-1.52,6.86-4.08,9.42-5.51S48.69,26.7,50.81,25.48Z"/><polygon class="cls-2" points="50.81 25.48 45.35 28.64 8.95 7.62 14.4 4.46 50.81 25.48"/><path class="cls-3" d="M20.78,11.29c3.64,2.1,3.64-6.3,9.1-3.15S35.34,19.7,39,21.8"/><line class="cls-4" x1="50.81" y1="25.48" x2="54.02" y2="55.56"/><path class="cls-4" d="M45.35,60.84a40.8,40.8,0,0,1,4.33-3.52A32.11,32.11,0,0,1,54,55.56"/><line class="cls-4" x1="45.35" y1="28.64" x2="50.81" y2="25.48"/><line class="cls-4" x1="8.95" y1="7.62" x2="14.4" y2="4.46"/><line class="cls-4" x1="8.95" y1="7.62" x2="8.95" y2="39.82"/><line class="cls-4" x1="8.95" y1="39.82" x2="45.35" y2="60.84"/><path class="cls-4" d="M45.35,28.64c-2.13,1.22-4.47,2.58-7.05,4s-6.42,4-9.42,5.51L18,31.85c-1.25-4-2.12-9.2-3.32-12.86C13.32,15,11.07,11.29,9,7.62"/><line class="cls-4" x1="50.81" y1="25.48" x2="14.4" y2="4.46"/></g></g></svg>