<svg xmlns="http://www.w3.org/2000/svg" viewBox="0 0 64 64"><defs><style>.cls-1,.cls-2{fill:none;}.cls-2{stroke:#191919;stroke-miterlimit:10;stroke-width:2px;}.cls-3{fill:#fff;}.cls-4{opacity:0.8;}.cls-5{fill:#191919;}</style></defs><g id="Layer_2" data-name="Layer 2"><g id="Layer_3" data-name="Layer 3"><rect class="cls-1" width="64" height="64"/></g><g id="Laag_2" data-name="Laag 2"><path class="cls-2" d="M29.31,32.53c0,4.24.21,10.46.21,11.93s1.69,1.94,3.39,1.94"/><path class="cls-2" d="M26.17,50.5c3.14,1.22,8.81.74,10.09,0"/><path class="cls-2" d="M34.47,31.58c2.61-1.77,8.3-2.1,8.3-2.1"/><path class="cls-2" d="M27.7,32c-2.39-1.61-8.17-2.81-8.17-2.81"/><path class="cls-2" d="M48.25,39.81c-3.53,12.48-3.59,12.75-7.87,16.68s-9.76,5.43-14.65,1.56-7.32-6-7.8-10.85-1.56-22.85-1.35-27.53S22.07,8.14,30.14,8.27s19.94,6.31,19.33,18.25S48.25,39.81,48.25,39.81Z"/><path class="cls-2" d="M49.14,32c2.37-.67,3.56,4.66-1.31,9.29"/><path class="cls-2" d="M17,32.53c-2.75-2.35-4.19,5.9.63,10.32"/><path class="cls-3" d="M25.23,12.7c.89-.24,2.37-.33,2.92-.6.66,0,.49-.08-.51-.28-.87-1.46-1.18-1.79-.92-1-.06-.46-.08-.48-.07,0,.06-.31.05-.22,0,.24-.35,3,.18,6.36,3.51,7.41a5.37,5.37,0,0,0,6.77-4A10.94,10.94,0,0,0,37,10a9.33,9.33,0,0,0-.36-1.63,8.21,8.21,0,0,0-.29-.78c-.15-.41-.17-.37-.05.12l-.51,1.89a2.49,2.49,0,0,1-3.57.4,1,1,0,0,1-.34-.53c.08,0,.14.76.14.78a6.41,6.41,0,0,0,1.54,4.08,3.89,3.89,0,0,0,1.24.93q1.27.84-.9-1.69c.1-.43.09-.41,0,.06L35.92,12a1.43,1.43,0,0,1,.5.09c-.34,0-.49-.66-.22-.1l.51,1.9-.51,1.37.28-.25c-.42.11.17-.09.32-.18s.65-.39.4-.23-.13,0,.08,0,.23-.08,0-.06c0,.13-1-.32-1.27-.47.23.12.28.36,0,0,.44.6.88,1.21,1.37,1.77a14.11,14.11,0,0,0,2.89,2.44,10.63,10.63,0,0,0,1.32.74c.46.22.94.41,1.42.6.22.09.75.48.23.13L42,18.43l.14.28-.51-1.9c.09-.79-.09.48-.09.89a8.3,8.3,0,0,0,.1,1,6.32,6.32,0,0,0,.87,2.45,6.77,6.77,0,0,0,3.93,2.92,3.81,3.81,0,0,0,4.75-3.61c.25-2.91-2-5.31-4.42-6.49-.46-.22-.94-.42-1.39-.68-.63-.36-.34-.36-.09.12s-.16.9-.43,1.39c-.42.76-.7,1.3-1.65,1.18a2.56,2.56,0,0,1-.51-.19c-.19,0,.26.47,0,.07.59,1,.93,2.06,1.51,3,.28.46.6.9.89,1.35.14.23.28.45.41.69s.14.52.07.19c-.1-.52-.08.92,0,.53-.12.85-.29,1.69-.4,2.54a18.35,18.35,0,0,0,0,4c.19,1.95,1.59,3.85,3.75,3.75,1.87-.08,4-1.66,3.75-3.75a17.29,17.29,0,0,1,.2-4.75,9.4,9.4,0,0,0-.76-6.11c-.71-1.43-1.64-2.69-2.32-4.15a8.23,8.23,0,0,0-3.53-4C42,7,36.65,10.64,38.08,15.51a7.37,7.37,0,0,0,3.65,4.34c.68.37,1.41.65,2.09,1,.48.27.11.18,0-.16.47,1,0-1.45-.11-.28l4.74-3.62c.71.2-.07-.17.14.07s.36.28.45.61-.07.45-.07.7c0-.46.18-.93.18-1.4a4.28,4.28,0,0,0-1.62-3.21,9.33,9.33,0,0,0-2.13-1.07,6.81,6.81,0,0,1-2.08-1.42c-.69-.68-1.11-1.6-2.15-2.55-2.77-2.54-6.6-1.41-9.27.64a5.92,5.92,0,0,0-2.65,4.36c-.12,2.15,1.44,3.73,3.1,4.81,3.14,2.05,7.67,1.19,8.77-2.75a6.36,6.36,0,0,0-.48-4.91c-.28-.49-1.32-1.82-1.92-1.86s1,.65.81,1.29c0,.25,0,.13,0-.35,0-.32-.07-.63-.11-.95-.48-3.55-3.38-6.71-7.23-5.46A4.84,4.84,0,0,0,28.75,8a6.2,6.2,0,0,0,.48,2,8.88,8.88,0,0,1,.31,1c0,.14.14.92.1.44a9.17,9.17,0,0,0,0,1c0,.27,0,.27,0,0a1.26,1.26,0,0,1,1.41-.64l1.32-.48a2,2,0,0,1,1.46,1.27l.06.27c0-.44,0-.55,0-.33a8.15,8.15,0,0,0-.56-5.18c-2.13-3.73-6.69-2.83-10.14-1.89a3.82,3.82,0,0,0-2.62,4.61,3.8,3.8,0,0,0,4.62,2.62Z"/><path class="cls-3" d="M21,9.39a6.16,6.16,0,0,0-6.12,1.77,6.57,6.57,0,0,0-1.5,3c-.16,1-.19,1.9-.31,2.85l.14-1a6.57,6.57,0,0,1-.4,1.46l.38-.89a5.78,5.78,0,0,0-.7,3.31,5.67,5.67,0,0,0,1.5,2.82L13.35,22a2.78,2.78,0,0,1,.28.47l-.38-.9a3.42,3.42,0,0,1,.24.87l-.14-1a3.57,3.57,0,0,1,0,.73l.14-1a4.44,4.44,0,0,1-.15.52l.38-.89A15.3,15.3,0,0,0,13,22.5a5.09,5.09,0,0,0-.05,2.57,5,5,0,0,0,2.53,3.29A3.83,3.83,0,0,0,20.58,27c.89-1.69.53-4.2-1.35-5.13a1.12,1.12,0,0,1-.28-.16l.76.59a2.5,2.5,0,0,1-.23-.23l.59.76a1.67,1.67,0,0,1-.18-.28l.38.9a2.52,2.52,0,0,1-.13-.47l.14,1a1.13,1.13,0,0,1,0-.32l-.13,1a1.46,1.46,0,0,1,.1-.34l-.38.9a13.55,13.55,0,0,0,.78-1.9,6.85,6.85,0,0,0-.56-4.66,8.43,8.43,0,0,0-1.18-1.61l.58.76-.08-.14.37.9-.05-.15.13,1v-.19l-.13,1a1.14,1.14,0,0,1,.1-.36l-.38.9A10.91,10.91,0,0,0,20.39,18c.14-.92.18-1.84.29-2.76l-.13,1a4.77,4.77,0,0,1,.23-.92l-.37.89a3.2,3.2,0,0,1,.26-.48l-.58.76a2.56,2.56,0,0,1,.46-.47l-.76.59a3.74,3.74,0,0,1,.58-.33l-.89.38a2.62,2.62,0,0,1,.48-.13l-1,.13a3,3,0,0,1,.67,0l-1-.14.33.07a3.75,3.75,0,0,0,2-7.23Z"/><path class="cls-3" d="M19.06,13c-.44.3-.86.62-1.28.94A9.63,9.63,0,0,0,16.55,15a9.2,9.2,0,0,0-1.21,1.68,8.18,8.18,0,0,1-.62,1.08L15.3,17a2.79,2.79,0,0,1-.45.46l.76-.59a2.07,2.07,0,0,1-.32.19l.89-.37a1.89,1.89,0,0,1-.36.1,2.84,2.84,0,0,0-1.27.67,3,3,0,0,0-1,1.05,2.82,2.82,0,0,0-.44,1.4,2.8,2.8,0,0,0,.06,1.49,3.78,3.78,0,0,0,1.73,2.24l.89.38a3.77,3.77,0,0,0,2,0,5.25,5.25,0,0,0,1.25-.48l.33-.19a7.31,7.31,0,0,0,1-.85,9.06,9.06,0,0,0,.81-1c.38-.54.6-1.16,1-1.69l-.59.76a6.21,6.21,0,0,1,1-1l-.76.59c.3-.23.6-.44.91-.65a2.8,2.8,0,0,0,1-1,2.74,2.74,0,0,0,.67-1.27,2.84,2.84,0,0,0,.07-1.5,2.7,2.7,0,0,0-.45-1.39A3.77,3.77,0,0,0,22,12.63l-1-.13a3.73,3.73,0,0,0-1.9.51Z"/><path class="cls-2" d="M35.23,36.7a14,14,0,0,1,3.85-.09"/><path class="cls-2" d="M25.54,36.7a14,14,0,0,0-3.85-.09"/><g class="cls-4"><path class="cls-5" d="M25.23,12.7c.89-.24,2.37-.33,2.92-.6.66,0,.49-.08-.51-.28-.87-1.46-1.18-1.79-.92-1-.06-.46-.08-.48-.07,0,.06-.31.05-.22,0,.24-.35,3,.18,6.36,3.51,7.41a5.37,5.37,0,0,0,6.77-4A10.94,10.94,0,0,0,37,10a9.33,9.33,0,0,0-.36-1.63,8.21,8.21,0,0,0-.29-.78c-.15-.41-.17-.37-.05.12l-.51,1.89a2.49,2.49,0,0,1-3.57.4,1,1,0,0,1-.34-.53c.08,0,.14.76.14.78a6.41,6.41,0,0,0,1.54,4.08,3.89,3.89,0,0,0,1.24.93q1.27.84-.9-1.69c.1-.43.09-.41,0,.06L35.92,12a1.43,1.43,0,0,1,.5.09c-.34,0-.49-.66-.22-.1l.51,1.9-.51,1.37.28-.25c-.42.11.17-.09.32-.18s.65-.39.4-.23-.13,0,.08,0,.23-.08,0-.06c0,.13-1-.32-1.27-.47.23.12.28.36,0,0,.44.6.88,1.21,1.37,1.77a14.11,14.11,0,0,0,2.89,2.44,10.63,10.63,0,0,0,1.32.74c.46.22.94.41,1.42.6.22.09.75.48.23.13L42,18.43l.14.28-.51-1.9c.09-.79-.09.48-.09.89a8.3,8.3,0,0,0,.1,1,6.32,6.32,0,0,0,.87,2.45,6.77,6.77,0,0,0,3.93,2.92,3.81,3.81,0,0,0,4.75-3.61c.25-2.91-2-5.31-4.42-6.49-.46-.22-.94-.42-1.39-.68-.63-.36-.34-.36-.09.12s-.16.9-.43,1.39c-.42.76-.7,1.3-1.65,1.18a2.56,2.56,0,0,1-.51-.19c-.19,0,.26.47,0,.07.59,1,.93,2.06,1.51,3,.28.46.6.9.89,1.35.14.23.28.45.41.69s.14.52.07.19c-.1-.52-.08.92,0,.53-.12.85-.29,1.69-.4,2.54a18.35,18.35,0,0,0,0,4c.19,1.95,1.59,3.85,3.75,3.75,1.87-.08,4-1.66,3.75-3.75a17.29,17.29,0,0,1,.2-4.75,9.4,9.4,0,0,0-.76-6.11c-.71-1.43-1.64-2.69-2.32-4.15a8.23,8.23,0,0,0-3.53-4C42,7,36.65,10.64,38.08,15.51a7.37,7.37,0,0,0,3.65,4.34c.68.37,1.41.65,2.09,1,.48.27.11.18,0-.16.47,1,0-1.45-.11-.28l4.74-3.62c.71.2-.07-.17.14.07s.36.28.45.61-.07.45-.07.7c0-.46.18-.93.18-1.4a4.28,4.28,0,0,0-1.62-3.21,9.33,9.33,0,0,0-2.13-1.07,6.81,6.81,0,0,1-2.08-1.42c-.69-.68-1.11-1.6-2.15-2.55-2.77-2.54-6.6-1.41-9.27.64a5.92,5.92,0,0,0-2.65,4.36c-.12,2.15,1.44,3.73,3.1,4.81,3.14,2.05,7.67,1.19,8.77-2.75a6.36,6.36,0,0,0-.48-4.91c-.28-.49-1.32-1.82-1.92-1.86s1,.65.81,1.29c0,.25,0,.13,0-.35,0-.32-.07-.63-.11-.95-.48-3.55-3.38-6.71-7.23-5.46A4.84,4.84,0,0,0,28.75,8a6.2,6.2,0,0,0,.48,2,8.88,8.88,0,0,1,.31,1c0,.14.14.92.1.44a9.17,9.17,0,0,0,0,1c0,.27,0,.27,0,0a1.26,1.26,0,0,1,1.41-.64l1.32-.48a2,2,0,0,1,1.46,1.27l.06.27c0-.44,0-.55,0-.33a8.15,8.15,0,0,0-.56-5.18c-2.13-3.73-6.69-2.83-10.14-1.89a3.82,3.82,0,0,0-2.62,4.61,3.8,3.8,0,0,0,4.62,2.62Z"/></g><g class="cls-4"><path class="cls-5" d="M21,9.39a6.16,6.16,0,0,0-6.12,1.77,6.57,6.57,0,0,0-1.5,3c-.16,1-.19,1.9-.31,2.85l.14-1a6.57,6.57,0,0,1-.4,1.46l.38-.89a5.78,5.78,0,0,0-.7,3.31,5.67,5.67,0,0,0,1.5,2.82L13.35,22a2.78,2.78,0,0,1,.28.47l-.38-.9a3.42,3.42,0,0,1,.24.87l-.14-1a3.57,3.57,0,0,1,0,.73l.14-1a4.44,4.44,0,0,1-.15.52l.38-.89A15.3,15.3,0,0,0,13,22.5a5.09,5.09,0,0,0-.05,2.57,5,5,0,0,0,2.53,3.29A3.83,3.83,0,0,0,20.58,27c.89-1.69.53-4.2-1.35-5.13a1.12,1.12,0,0,1-.28-.16l.76.59a2.5,2.5,0,0,1-.23-.23l.59.76a1.67,1.67,0,0,1-.18-.28l.38.9a2.52,2.52,0,0,1-.13-.47l.14,1a1.13,1.13,0,0,1,0-.32l-.13,1a1.46,1.46,0,0,1,.1-.34l-.38.9a13.55,13.55,0,0,0,.78-1.9,6.85,6.85,0,0,0-.56-4.66,8.43,8.43,0,0,0-1.18-1.61l.58.76-.08-.14.37.9-.05-.15.13,1v-.19l-.13,1a1.14,1.14,0,0,1,.1-.36l-.38.9A10.91,10.91,0,0,0,20.39,18c.14-.92.18-1.84.29-2.76l-.13,1a4.77,4.77,0,0,1,.23-.92l-.37.89a3.2,3.2,0,0,1,.26-.48l-.58.76a2.56,2.56,0,0,1,.46-.47l-.76.59a3.74,3.74,0,0,1,.58-.33l-.89.38a2.62,2.62,0,0,1,.48-.13l-1,.13a3,3,0,0,1,.67,0l-1-.14.33.07a3.75,3.75,0,0,0,2-7.23Z"/></g><g class="cls-4"><path class="cls-5" d="M19.06,13c-.44.3-.86.62-1.28.94A9.63,9.63,0,0,0,16.55,15a9.2,9.2,0,0,0-1.21,1.68,8.18,8.18,0,0,1-.62,1.08L15.3,17a2.79,2.79,0,0,1-.45.46l.76-.59a2.07,2.07,0,0,1-.32.19l.89-.37a1.89,1.89,0,0,1-.36.1,2.84,2.84,0,0,0-1.27.67,3,3,0,0,0-1,1.05,2.82,2.82,0,0,0-.44,1.4,2.8,2.8,0,0,0,.06,1.49,3.78,3.78,0,0,0,1.73,2.24l.89.38a3.77,3.77,0,0,0,2,0,5.25,5.25,0,0,0,1.25-.48l.33-.19a7.31,7.31,0,0,0,1-.85,9.06,9.06,0,0,0,.81-1c.38-.54.6-1.16,1-1.69l-.59.76a6.21,6.21,0,0,1,1-1l-.76.59c.3-.23.6-.44.91-.65a2.8,2.8,0,0,0,1-1,2.74,2.74,0,0,0,.67-1.27,2.84,2.84,0,0,0,.07-1.5,2.7,2.7,0,0,0-.45-1.39A3.77,3.77,0,0,0,22,12.63l-1-.13a3.73,3.73,0,0,0-1.9.51Z"/></g><g class="cls-4"><path class="cls-5" d="M27.88,16.41A13.47,13.47,0,0,0,32,18.75a11.67,11.67,0,0,0,3.89.59c2.32,0,4.59-.69,6.92-.45a3.75,3.75,0,0,0,2.65-6.4,4.32,4.32,0,0,0-2.65-1.1c-2.77-.29-5.49.71-8.25.37l1,.13a8.69,8.69,0,0,1-1.94-.52l.89.38a7.59,7.59,0,0,1-1-.49c-.29-.16-1.26-.91-.32-.16A4.07,4.07,0,0,0,30.53,10a3.8,3.8,0,0,0-2.65,1.09c-1.25,1.37-1.63,4,0,5.31Z"/></g><g class="cls-4"><path class="cls-5" d="M39.67,22.2a6.94,6.94,0,0,0,1.27,1.63,11.5,11.5,0,0,0,1.15.91,3.25,3.25,0,0,0,.51.3,7.25,7.25,0,0,0,1.91.73,6.87,6.87,0,0,0,2.12.17,2.78,2.78,0,0,0,1.45-.32,3.45,3.45,0,0,0,2-2,2.88,2.88,0,0,0,.32-1.45l-.13-1a3.73,3.73,0,0,0-1-1.66L48.53,19a3.85,3.85,0,0,0-1.9-.52,3.47,3.47,0,0,1-.91,0l1,.13a3.47,3.47,0,0,1-1-.27l.9.38a4,4,0,0,1-.88-.51l.75.58a3.88,3.88,0,0,1-.64-.64l.58.76c-.1-.15-.2-.3-.29-.45a2.91,2.91,0,0,0-1-1.06,2.89,2.89,0,0,0-1.27-.67,2.94,2.94,0,0,0-1.5-.06,2.78,2.78,0,0,0-1.39.44l-.76.59a3.75,3.75,0,0,0-1,1.65l-.13,1a3.67,3.67,0,0,0,.51,1.89Z"/></g></g></g></svg>