<svg xmlns="http://www.w3.org/2000/svg" viewBox="0 0 47.85 60.38"><defs><style>.cls-1{fill:#ccc;}.cls-2{fill:#fff;}.cls-3,.cls-4,.cls-5,.cls-6,.cls-7,.cls-8{fill:none;}.cls-3{stroke:#000;stroke-linecap:round;stroke-linejoin:round;stroke-width:2px;}.cls-4{stroke:#ccc;}.cls-4,.cls-5,.cls-6,.cls-7,.cls-8{stroke-miterlimit:10;}.cls-5{stroke:#cbcbcb;}.cls-6{stroke:#c9c9c9;}.cls-7{stroke:#c8c8c8;}.cls-8{stroke:#c6c6c6;}</style></defs><g id="Layer_2" data-name="Layer 2"><g id="Laag_1" data-name="Laag 1"><polygon class="cls-1" points="31.13 50.31 14.99 59.63 14.99 10.89 31.13 9.03 31.13 50.31"/><polygon class="cls-2" points="37.16 31.8 25.97 38.25 34.72 43.3 45.92 36.86 37.16 31.8"/><polygon class="cls-2" points="1 51.54 14.99 59.65 14.99 11.27 1 3.16 1 51.54"/><polygon class="cls-1" points="46.85 36.28 46.85 51.88 34.69 58.9 34.69 43.3 46.85 36.28"/><polygon class="cls-2" points="34.69 43.3 34.69 58.9 25.24 53.44 25.24 37.84 34.69 43.3"/><line class="cls-3" x1="46.85" y1="51.88" x2="46.85" y2="36.28"/><line class="cls-3" x1="31.25" y1="27.18" x2="46.85" y2="36.28"/><line class="cls-4" x1="35.5" y1="43.77" x2="25.24" y2="37.84"/><line class="cls-4" x1="35.1" y1="51.33" x2="25.24" y2="45.64"/><line class="cls-4" x1="34.69" y1="58.9" x2="25.24" y2="53.44"/><line class="cls-4" x1="0.78" y1="3.03" x2="15.29" y2="11.4"/><line class="cls-5" x1="0.84" y1="15.06" x2="15.21" y2="23.36"/><line class="cls-6" x1="0.89" y1="27.09" x2="15.14" y2="35.31"/><line class="cls-7" x1="0.95" y1="39.12" x2="15.06" y2="47.27"/><line class="cls-8" x1="1" y1="51.15" x2="14.99" y2="59.23"/><line class="cls-4" x1="14.99" y1="11.47" x2="14.99" y2="59.61"/><line class="cls-4" x1="10.35" y1="8.7" x2="10.35" y2="56.84"/><line class="cls-4" x1="5.71" y1="5.92" x2="5.71" y2="54.06"/><line class="cls-4" x1="1.07" y1="3.15" x2="1.07" y2="51.29"/><line class="cls-3" x1="17.14" y1="1" x2="31.13" y2="9.08"/><line class="cls-3" x1="1" y1="2.81" x2="17.14" y2="1"/><polyline class="cls-3" points="1 51.56 1 26.47 1 2.81"/><line class="cls-3" x1="31.13" y1="34.33" x2="31.13" y2="9.08"/><line class="cls-3" x1="1" y1="51.54" x2="14.52" y2="59.38"/><line class="cls-3" x1="25.24" y1="53.44" x2="14.52" y2="59.38"/><line class="cls-4" x1="35.21" y1="43.45" x2="35.21" y2="59.38"/><line class="cls-4" x1="30.26" y1="40.96" x2="30.26" y2="56.55"/><line class="cls-4" x1="25.31" y1="38.47" x2="25.31" y2="53.73"/><line class="cls-4" x1="20.37" y1="35.97" x2="20.37" y2="50.9"/><line class="cls-3" x1="25.24" y1="53.44" x2="34.69" y2="58.9"/><line class="cls-3" x1="34.69" y1="58.9" x2="46.85" y2="51.88"/></g></g></svg>