<svg xmlns="http://www.w3.org/2000/svg" xmlns:xlink="http://www.w3.org/1999/xlink" viewBox="0 0 53.35 63.61"><defs><style>.cls-1,.cls-3,.cls-5{fill:none;}.cls-2{clip-path:url(#clip-path);}.cls-3{stroke:#828282;stroke-miterlimit:10;}.cls-4{fill:#c6c6c6;}.cls-5{stroke:#000;stroke-linecap:round;stroke-linejoin:round;stroke-width:2px;}.cls-6{fill:#fff;}</style><clipPath id="clip-path"><polygon class="cls-1" points="40.3 42.65 40.3 42.65 38.67 43.63 34.95 45.86 32.71 47.2 31.26 48.07 16.1 39.01 16.1 31.74 19.23 33.62 31.31 26.36 31.31 22.75 37.31 26.36 37.31 26.36 52.35 35.42 46.31 39.05 40.91 42.28 40.91 42.28 40.3 42.65"/></clipPath></defs><g id="Layer_2" data-name="Layer 2"><g id="Laag_1" data-name="Laag 1"><g class="cls-2"><line class="cls-3" x1="22.24" y1="17.31" x2="52.35" y2="35.44"/><line class="cls-3" x1="19.21" y1="19.13" x2="49.34" y2="37.25"/><line class="cls-3" x1="16.17" y1="20.94" x2="46.32" y2="39.05"/><line class="cls-3" x1="13.14" y1="22.75" x2="43.31" y2="40.86"/><line class="cls-3" x1="10.1" y1="24.56" x2="40.3" y2="42.67"/><line class="cls-3" x1="7.07" y1="26.38" x2="37.29" y2="44.47"/><line class="cls-3" x1="4.03" y1="28.19" x2="34.28" y2="46.28"/><line class="cls-3" x1="1" y1="30" x2="31.26" y2="48.09"/></g><polygon class="cls-4" points="52.35 42.67 47 45.9 46.98 45.86 40.91 42.28 46.31 39.05 52.35 42.67"/><polygon class="cls-4" points="37.31 8.25 37.31 26.36 31.31 22.75 31.31 11.88 28.18 10.01 28.18 2.8 28.2 2.78 37.31 8.25"/><polygon class="cls-4" points="31.31 11.88 19.23 19.13 19.22 19.13 13.18 15.5 25.22 8.28 25.27 8.25 28.18 10.01 31.31 11.88"/><polygon class="cls-4" points="31.27 55.39 31.27 62.61 16.1 53.53 16.1 46.3 16.1 46.3 31.27 55.39"/><polygon class="cls-4" points="28.2 2.78 28.18 2.8 25.22 4.58 25.22 1 28.2 2.78"/><polygon class="cls-4" points="13.18 15.5 19.22 19.13 19.22 33.61 16.1 31.74 16.1 31.74 16.1 20.92 13.18 19.17 13.18 15.5"/><polygon class="cls-4" points="16.1 46.3 16.1 53.53 4.02 46.29 4.02 39.05 4.02 35.42 4.02 31.79 4.02 28.18 4.02 13.67 7.06 15.5 13.18 19.17 16.1 20.92 16.1 31.74 16.1 39.01 16.1 46.3"/><polygon class="cls-4" points="4.02 39.05 4.02 46.29 1 44.48 1 37.23 4.02 39.05"/><polyline class="cls-5" points="16.1 46.3 16.1 39.01 16.1 31.74 16.1 20.92 13.18 19.17 7.06 15.5 4.02 13.67 4.02 28.18 4.02 31.79 4.02 35.42 4.02 39.05"/><polyline class="cls-5" points="4.02 46.29 4.02 46.3 16.1 53.54 16.1 53.53"/><line class="cls-5" x1="25.22" y1="8.2" x2="25.22" y2="8.28"/><polyline class="cls-5" points="37.31 26.36 37.31 8.25 28.2 2.78 25.22 1 25.22 4.58"/><polyline class="cls-5" points="7.09 15.45 25.22 4.58 28.18 2.8 28.18 10.01"/><line class="cls-5" x1="13.18" y1="15.5" x2="13.18" y2="19.17"/><polyline class="cls-5" points="4.02 31.79 1 29.98 4.02 28.18"/><polyline class="cls-5" points="40.3 42.65 34.95 45.86 31.27 48.07 16.1 39.01"/><line class="cls-5" x1="40.91" y1="42.28" x2="40.3" y2="42.65"/><polyline class="cls-5" points="31.31 22.75 37.31 26.36 37.31 26.37 52.35 35.42 46.31 39.05 40.91 42.28"/><polyline class="cls-5" points="31.27 62.61 16.1 53.53 4.02 46.29 1 44.48 1 37.23 4.02 39.05"/><line class="cls-5" x1="16.1" y1="46.29" x2="31.27" y2="55.39"/><polyline class="cls-5" points="31.27 55.39 41.08 49.47 47 45.9 52.35 42.67 52.35 49.92 31.27 62.61"/><line class="cls-5" x1="52.35" y1="42.67" x2="46.31" y2="39.05"/><line class="cls-5" x1="1" y1="37.23" x2="4.02" y2="35.42"/><polyline class="cls-5" points="34.95 45.86 41.08 49.47 41.08 49.48"/><polyline class="cls-5" points="40.91 42.28 40.91 42.28 46.98 45.86"/><polyline class="cls-5" points="31.31 11.88 28.18 10.01 25.27 8.25 25.22 8.28 13.18 15.5"/><polyline class="cls-5" points="31.31 26.37 31.31 22.75 31.31 11.88"/><polyline class="cls-5" points="19.22 33.62 19.23 33.62 31.31 26.37"/><line class="cls-5" x1="16.1" y1="31.74" x2="19.22" y2="33.61"/><ellipse cx="9.49" cy="23.69" rx="1.99" ry="2.49" transform="translate(-10.61 7.96) rotate(-30.13)"/><polygon class="cls-6" points="30.37 25.74 19.23 32.45 19.23 19.13 30.37 12.41 30.37 25.74"/></g></g></svg>