<svg xmlns="http://www.w3.org/2000/svg" viewBox="0 0 64 64"><defs><style>.cls-1,.cls-2,.cls-5,.cls-6{fill:none;}.cls-2,.cls-6{stroke:#ccc;}.cls-2{stroke-miterlimit:10;}.cls-3{fill:#fff;}.cls-4{fill:#ccc;}.cls-5{stroke:#191919;}.cls-5,.cls-6{stroke-linecap:round;stroke-linejoin:round;stroke-width:2px;}.cls-7{fill:#191919;}</style></defs><g id="Layer_2" data-name="Layer 2"><g id="Layer_3" data-name="Layer 3"><rect class="cls-1" width="64" height="64"/></g><g id="Laag_2" data-name="Laag 2"><line class="cls-2" x1="19.82" y1="34.64" x2="34.74" y2="26.36"/><line class="cls-2" x1="19.82" y1="41.62" x2="34.74" y2="33.35"/><line class="cls-2" x1="19.82" y1="48.61" x2="34.74" y2="40.33"/><line class="cls-2" x1="19.82" y1="55.59" x2="34.74" y2="47.32"/><line class="cls-2" x1="19.82" y1="34.68" x2="19.82" y2="55.64"/><line class="cls-2" x1="24.79" y1="31.91" x2="24.79" y2="52.87"/><line class="cls-2" x1="29.76" y1="29.13" x2="29.76" y2="50.09"/><line class="cls-2" x1="34.74" y1="26.36" x2="34.74" y2="47.32"/><line class="cls-2" x1="44.18" y1="31.95" x2="59.1" y2="23.67"/><line class="cls-2" x1="44.18" y1="38.94" x2="59.1" y2="30.66"/><line class="cls-2" x1="44.18" y1="45.92" x2="59.1" y2="37.65"/><line class="cls-2" x1="44.18" y1="52.91" x2="59.1" y2="44.63"/><line class="cls-2" x1="44.18" y1="32" x2="44.18" y2="52.96"/><line class="cls-2" x1="49.15" y1="29.22" x2="49.15" y2="50.18"/><line class="cls-2" x1="54.13" y1="26.45" x2="54.13" y2="47.41"/><line class="cls-2" x1="59.1" y1="23.67" x2="59.1" y2="44.63"/></g><g id="Laag_1" data-name="Laag 1"><polygon class="cls-3" points="59.1 23.31 44.18 31.92 34.73 26.36 19.82 34.97 4.9 26.36 19.82 17.75 34.73 9.13 49.65 17.75 59.1 23.31"/><polygon class="cls-4" points="44.18 31.92 44.18 52.88 34.73 47.32 34.73 26.36 44.18 31.92"/><polygon class="cls-4" points="19.82 34.97 19.82 55.93 4.9 47.32 4.9 26.36 19.82 34.97"/><line class="cls-5" x1="59.1" y1="23.31" x2="59.1" y2="44.27"/><line class="cls-6" x1="44.18" y1="31.92" x2="44.18" y2="52.88"/><line class="cls-6" x1="34.73" y1="26.36" x2="34.73" y2="47.32"/><line class="cls-6" x1="19.82" y1="34.97" x2="19.82" y2="55.93"/><line class="cls-5" x1="4.9" y1="26.36" x2="4.9" y2="47.32"/><polyline class="cls-5" points="4.9 47.32 19.82 55.93 34.73 47.32 44.18 52.88 59.1 44.27"/><polygon class="cls-5" points="59.1 23.31 49.65 17.75 34.73 9.13 19.82 17.75 4.9 26.36 19.82 34.97 34.73 26.36 44.18 31.92 59.1 23.31"/><polygon class="cls-7" points="9.49 50.02 9.49 40.05 13.9 42.6 13.9 52.56 9.49 50.02"/></g></g></svg>