<svg xmlns="http://www.w3.org/2000/svg" viewBox="0 0 64 64"><defs><style>.cls-1,.cls-4,.cls-5{fill:none;}.cls-2{fill:#ccc;}.cls-3{fill:#fff;}.cls-4{stroke:#191919;}.cls-4,.cls-5{stroke-linecap:round;stroke-linejoin:round;stroke-width:2px;}.cls-5{stroke:#fff;}</style></defs><g id="Layer_2" data-name="Layer 2"><g id="Layer_3" data-name="Layer 3"><rect class="cls-1" width="64" height="64"/></g><g id="Laag_2" data-name="Laag 2"><path class="cls-2" d="M54.16,50.72a3.76,3.76,0,0,0,.28-.32A2.79,2.79,0,0,1,54.16,50.72Z"/><path class="cls-2" d="M53.13,36.73a2.41,2.41,0,0,1,1-.32A3,3,0,0,0,53.13,36.73Z"/><path class="cls-2" d="M53.11,51.62c-.31.2-.62.38-1,.55C52.48,52,52.81,51.81,53.11,51.62Z"/><path class="cls-2" d="M55.86,46.82V47c0,.07,0,.16,0,.24s0,.05,0,.08v0s0,0,0,.06a0,0,0,0,1,0,0v0a6.68,6.68,0,0,1-1.3,2.89l-.07.08a3.76,3.76,0,0,1-.28.32l0,.05a5.07,5.07,0,0,1-.6.55l-.1.08-.31.22c-.3.19-.63.36-1,.55l-.66.38-1.37.79V38.46h0L52.69,37l.12-.08.32-.17a3,3,0,0,1,1-.32h.39s0,0,0,0h0l.17,0,0,0h0l0,0h0l0,0,0,0h0l.05,0,.14.09s0,0,0,0l0,0s0,0,0,0h0l0,0,0,0s0,0,0,0v0l0,0h0l0,0a.31.31,0,0,1,.07.09h0l0,0,0,0v0l0,0v0l0,0v0s0,0,0,0h0s0,0,0,0a2.24,2.24,0,0,1,.12.29s0,.07,0,.11a.19.19,0,0,1,0,.08,15.67,15.67,0,0,1,.08,1.93v.1c0,1,0,2.09,0,2.35v4.67Z"/><path class="cls-3" d="M50.13,38.46V53.34l-10-5.8v-3.3Q45.11,41.33,50.13,38.46Z"/><path class="cls-2" d="M40.11,59.12V47.54l10,5.8c-2.87,1.64-5.72,3.3-8.59,5Z"/><path class="cls-3" d="M38.74,45l1.36-.78s0,0,0,0V59.12l-5.73-3.31V50.76a.07.07,0,0,1,0,0v-.08a2.11,2.11,0,0,1,0-.25.17.17,0,0,1,0-.07v0a.17.17,0,0,1,0-.07v0s0,0,0,0a6.48,6.48,0,0,1,.8-2.15,5,5,0,0,1,.5-.73,4.19,4.19,0,0,1,.39-.45,4.53,4.53,0,0,1,.59-.57l.1-.07.13-.08C37.51,45.68,38.14,45.38,38.74,45Z"/><path class="cls-2" d="M35.6,8.8l.46-.28A4.17,4.17,0,0,0,36.75,8a2.14,2.14,0,0,0,.43-.56,1.25,1.25,0,0,0,.16-.56h0c0,1.53,0,3,0,4.57a10.19,10.19,0,0,0,1.1,4.4c1.32,2.75,2.69,5.48,4,8.21.69,1.38,1.36,2.74,2,4.11a11.42,11.42,0,0,0,2.6,3.72A12,12,0,0,0,49,33.14l2,1.13,3.86,2.24h0l0,0h0l0,0-.17,0h0s0,0,0,0h-.39a2.41,2.41,0,0,0-1,.32l-.32.17-.12.08-2.56,1.47-5.55-3.21-.4-.22L44.07,35l-.1-.07-.1,0a1.1,1.1,0,0,0-.14-.09l-.22-.12c-.17-.11-.33-.22-.51-.32a9,9,0,0,1-1.29-1.18,10.34,10.34,0,0,1-1.12-1.53,5.45,5.45,0,0,1-.35-.62l-.14-.26L40,30.54c-2-3.77-3.92-7.53-5.87-11.31l-.08-.13-.1-.18c-.2-.4-.38-.82-.54-1.24s-.22-.73-.31-1.1a6.21,6.21,0,0,1-.15-1c0-.07,0-.14,0-.21v-5l.16-.1.8-.46.79-.46Z"/><path class="cls-2" d="M35.4,61.07h0s0,0,0,0h0l0,0h0l0,0-.06,0-.08-.07a0,0,0,0,1,0,0l0,0h0l0,0,0,0h0l0,0h0l0,0h0l0,0-.06-.09,0,0s0,0,0,0h0l0,0v0a0,0,0,0,1,0,0l0,0h0s0,0,0,0a0,0,0,0,0,0,0,.08.08,0,0,0,0,0l-.11-.3,0-.11a.25.25,0,0,1,0-.08c-.09-.6-.09-2.94-.07-4l5.73,3.31L37.55,60.6a6.51,6.51,0,0,1-.74.39h0a2,2,0,0,1-.64.15h-.48l-.16,0h0s0,0,0,0Z"/><path class="cls-2" d="M24.88,15l6.63-3.82L33,10.34v5c0,.07,0,.14,0,.21a6.21,6.21,0,0,0,.15,1c.09.37.2.74.31,1.1s.34.84.54,1.24l.1.18.08.13c2,3.78,3.91,7.54,5.87,11.31l.09.18.14.26a5.45,5.45,0,0,0,.35.62,10.34,10.34,0,0,0,1.12,1.53A9,9,0,0,0,43,34.31c.18.1.34.21.51.32l.22.12a1.1,1.1,0,0,1,.14.09l.1,0,.1.07.11.06.4.22,5.55,3.21h0q-5,2.86-10,5.78s0,0,0,0L34.55,41l-.39-.23-.11-.06-.12-.07-.08-.05-.14-.07-.22-.13a5.54,5.54,0,0,1-.51-.33,8.6,8.6,0,0,1-1.3-1.18,9.23,9.23,0,0,1-1.12-1.51c-.12-.21-.24-.42-.35-.63l-.14-.27a1.3,1.3,0,0,1-.08-.17L24.11,25a.61.61,0,0,1-.07-.14c0-.06-.07-.12-.1-.19a10.56,10.56,0,0,1-.54-1.24,7.09,7.09,0,0,1-.31-1.09,6.18,6.18,0,0,1-.15-1.05,1.27,1.27,0,0,1,0-.2v-.28a1.22,1.22,0,0,1,0-.27V16.12l.6-.36Z"/><path class="cls-2" d="M27.36,3.65l.27-.15.17-.08.14-.06a3.75,3.75,0,0,1,.43-.16,5.66,5.66,0,0,1,1.13-.28l.44-.07.58,0a2.92,2.92,0,0,1,.51,0,3.7,3.7,0,0,1,.48.09l.49.21.66.39c.21.13.44.24.67.37l.66.39.67.38.33.2.33.19.33.2c.11.06.23.11.34.18l.23.14.29.16.27.18.19.13a.92.92,0,0,1,.14.14.38.38,0,0,1,.11.14,1.6,1.6,0,0,1,.1.23.78.78,0,0,1,0,.26,1.25,1.25,0,0,1-.16.56,2.14,2.14,0,0,1-.43.56,4.17,4.17,0,0,1-.69.55l-.46.28-.9.52-.79.46-.8.46-.16.1-8.6-5,1.24-.71c.17-.1.34-.21.52-.3l.75-.44Z"/><path class="cls-3" d="M31.51,11.16,24.88,15a12.83,12.83,0,0,1-.52-2.87c0-.1,0-.2,0-.29V5.37l8.6,5Z"/><path class="cls-2" d="M22.93,16.12v4.45a1.22,1.22,0,0,0,0,.27v.28a1.27,1.27,0,0,0,0,.2,6.18,6.18,0,0,0,.15,1.05,7.09,7.09,0,0,0,.31,1.09,10.56,10.56,0,0,0,.54,1.24c0,.07.07.13.1.19a.61.61,0,0,0,.07.14L30,36.33a1.3,1.3,0,0,0,.08.17l.14.27c.11.21.23.42.35.63a9.23,9.23,0,0,0,1.12,1.51A8.6,8.6,0,0,0,33,40.09a5.54,5.54,0,0,0,.51.33l.22.13.14.07.08.05.12.07.11.06.39.23,5.55,3.21L38.74,45c-.6.36-1.23.66-1.79,1.07l-.13.08-.1.07a4.53,4.53,0,0,0-.59.57,3.31,3.31,0,0,0-.39.45,5,5,0,0,0-.5.73l-.75-.76L28.94,44l-.39-.23a.29.29,0,0,1-.11-.06l-.12-.07-.1-.06-.13-.07-.21-.12-.51-.33a7.66,7.66,0,0,1-1.3-1.18A9.76,9.76,0,0,1,25,40.38l-.36-.62-.13-.27-.1-.18L18.49,28l-.06-.13c0-.06-.07-.13-.1-.18a9.82,9.82,0,0,1-.54-1.25,7.09,7.09,0,0,1-.31-1.09,7.32,7.32,0,0,1-.16-1.06,1.15,1.15,0,0,1,0-.19,2.53,2.53,0,0,1,0-.27V19.12l0-.48h0a5.46,5.46,0,0,0,.69-.1c.22,0,.45-.11.67-.17s.47-.16.71-.26l.22-.1.11-.06.19-.1.5-.28.75-.43.53-.31Z"/><path class="cls-3" d="M14.33,11.16l8.6,5-1.24.71-.53.31-.75.43-.5.28-.19.1-.11.06-.22.1c-.24.1-.48.18-.71.26s-.45.13-.67.17a5.46,5.46,0,0,1-.69.1h0l-.52,0a4.87,4.87,0,0,1-.65-.05,3.69,3.69,0,0,1-.45-.11,1.84,1.84,0,0,1-.38-.17c-.31-.19-.63-.36-.94-.54a1.85,1.85,0,0,1,0-.23V11.17Z"/><path class="cls-2" d="M17,9.64l6.78-3.91.61-.36v6.45c0,.09,0,.19,0,.29A12.83,12.83,0,0,0,24.88,15l-1.35.78-.6.36-8.6-5,1.23-.71Z"/><path class="cls-2" d="M14.33,11.17v6.39a1.85,1.85,0,0,0,0,.23c-.57-.34-1.15-.68-1.72-1L11.29,16c-.09,0-.16-.09-.25-.14l-.27-.15a2,2,0,0,1-.34-.23,1.24,1.24,0,0,1-.23-.17l-.12-.14A.82.82,0,0,1,10,15a1.43,1.43,0,0,1,0-.22v-.17a1.36,1.36,0,0,1,.13-.42,1.92,1.92,0,0,1,.28-.42,2.67,2.67,0,0,1,.54-.52,8.28,8.28,0,0,1,.79-.52l.7-.4L13,12Z"/><path class="cls-3" d="M35,60.84h0l0,0a0,0,0,0,0,0,0l.08.07-6-3.49-2.81-1.63a14.89,14.89,0,0,1-7-7.85c-.45-1.08-.83-2.18-1.24-3.27s-.82-2.18-1.22-3.26C15.24,37.1,13.59,32.74,12,28.38c-.4-1.08-.8-2.16-1.19-3.25A14.82,14.82,0,0,1,10,21.72c-.14-1.4-.05-5.58-.05-7A1.43,1.43,0,0,0,10,15a.82.82,0,0,0,.11.23l.12.14a1.24,1.24,0,0,0,.23.17,2,2,0,0,0,.34.23l.27.15c.09,0,.16.1.25.14l1.33.77c.57.32,1.15.66,1.72,1,.31.18.63.35.94.54a1.84,1.84,0,0,0,.38.17,3.69,3.69,0,0,0,.45.11,4.87,4.87,0,0,0,.65.05l.52,0,0,.48v4.72a2.53,2.53,0,0,0,0,.27,1.15,1.15,0,0,0,0,.19,7.32,7.32,0,0,0,.16,1.06,7.09,7.09,0,0,0,.31,1.09,9.82,9.82,0,0,0,.54,1.25c0,.05.06.12.1.18l.06.13,5.87,11.3.1.18.13.27.36.62a9.76,9.76,0,0,0,1.12,1.52,7.66,7.66,0,0,0,1.3,1.18l.51.33.21.12.13.07.1.06.12.07a.29.29,0,0,0,.11.06l.39.23,5.55,3.21.75.76a6.48,6.48,0,0,0-.8,2.15s0,0,0,0v0a.17.17,0,0,0,0,.07v0a.17.17,0,0,0,0,.07,2.11,2.11,0,0,0,0,.25v.08a.07.07,0,0,0,0,0v5.05c0,1,0,3.39.07,4a.25.25,0,0,0,0,.08l0,.11.11.3a.08.08,0,0,1,0,0,0,0,0,0,1,0,0s0,0,0,0h0l0,0a0,0,0,0,0,0,0v0l0,0h0s0,0,0,0l0,0,.06.09,0,0h0l0,0h0l0,0h0l0,0Z"/><path class="cls-4" d="M54.89,36.52s0,0,0,0"/><path class="cls-4" d="M37.35,6.84h0c0,1.53,0,3,0,4.57a10.19,10.19,0,0,0,1.1,4.4c1.32,2.75,2.69,5.48,4,8.21.69,1.38,1.36,2.74,2,4.11a11.42,11.42,0,0,0,2.6,3.72A12,12,0,0,0,49,33.14l2,1.13,3.86,2.24"/><path class="cls-5" d="M40.1,44.24,34.55,41l-.39-.23-.11-.06-.12-.07-.08-.05-.14-.07-.22-.13a5.54,5.54,0,0,1-.51-.33,8.6,8.6,0,0,1-1.3-1.18,9.23,9.23,0,0,1-1.12-1.51c-.12-.21-.24-.42-.35-.63l-.14-.27a1.3,1.3,0,0,1-.08-.17L24.11,25a.61.61,0,0,1-.07-.14c0-.06-.07-.12-.1-.19a10.56,10.56,0,0,1-.54-1.24,7.09,7.09,0,0,1-.31-1.09,6.18,6.18,0,0,1-.15-1.05,1.27,1.27,0,0,1,0-.2v-.28a1.22,1.22,0,0,1,0-.27V16.12"/><line class="cls-4" x1="22.93" y1="16.12" x2="14.33" y2="11.16"/><polyline class="cls-4" points="40.11 59.12 40.11 47.54 40.11 44.24"/><path class="cls-4" d="M34.38,50.85v-.09"/><path class="cls-4" d="M34.39,50.71v0"/><path class="cls-4" d="M34.39,50.63a2.11,2.11,0,0,1,0-.25"/><path class="cls-4" d="M34.42,50.31v0"/><path class="cls-4" d="M34.43,50.22v0"/><path class="cls-4" d="M34.44,50.14a6.48,6.48,0,0,1,.8-2.15,5,5,0,0,1,.5-.73,3.31,3.31,0,0,1,.39-.45,4.53,4.53,0,0,1,.59-.57"/><path class="cls-4" d="M37,46.09c.37-.25.76-.45,1.13-.68"/><path class="cls-4" d="M53.13,36.73a3,3,0,0,1,1-.32"/><path class="cls-4" d="M54.37,36.4h0"/><path class="cls-4" d="M54.42,36.41h0"/><path class="cls-4" d="M54.48,36.41h0"/><path class="cls-4" d="M54.53,36.43h0"/><path class="cls-4" d="M54.58,36.44l.17,0"/><path class="cls-4" d="M54.79,36.49h0"/><path class="cls-4" d="M54.84,36.51h0"/><path class="cls-4" d="M54.89,36.52l0,0"/><path class="cls-4" d="M54.94,36.56h0"/><path class="cls-4" d="M55,36.58l.05,0"/><path class="cls-4" d="M55.17,36.69s0,0,0,0"/><path class="cls-4" d="M55.2,36.72s0,0,0,0"/><path class="cls-4" d="M55.24,36.75l0,0"/><path class="cls-4" d="M55.29,36.79s0,0,0,0"/><path class="cls-4" d="M55.32,36.83l0,0"/><path class="cls-4" d="M55.36,36.87l0,0"/><path class="cls-4" d="M55.46,37h0"/><path class="cls-4" d="M55.49,37l0,0"/><path class="cls-4" d="M55.52,37.09l0,0"/><path class="cls-4" d="M55.56,37.14l0,0"/><path class="cls-4" d="M55.59,37.19s0,0,0,0"/><path class="cls-4" d="M55.61,37.24s0,0,0,0"/><path class="cls-4" d="M55.86,39.8c0,1,0,2.09,0,2.35v4.57"/><path class="cls-4" d="M55.78,37.77a15.67,15.67,0,0,1,.08,1.93"/><path class="cls-4" d="M55.75,37.58s0,.07,0,.11"/><path class="cls-4" d="M55.86,46.82v0"/><path class="cls-4" d="M55.86,46.9V47"/><path class="cls-4" d="M55.84,47.19s0,.05,0,.08"/><path class="cls-4" d="M55.83,47.29s0,0,0,.06"/><path class="cls-4" d="M55.81,47.38v0"/><path class="cls-4" d="M54.44,50.4a3.76,3.76,0,0,1-.28.32"/><path class="cls-4" d="M53.11,51.62c-.31.2-.62.38-1,.55l-.66.38"/><path class="cls-4" d="M53.52,51.32l-.1.08"/><path class="cls-4" d="M50.13,53.34c-2.87,1.64-5.72,3.3-8.59,5"/><path class="cls-4" d="M36.06,61.16h-.18"/><path class="cls-4" d="M36.78,61a1.67,1.67,0,0,1-.64.15"/><path class="cls-4" d="M37.55,60.6a6.51,6.51,0,0,1-.74.39"/><path class="cls-4" d="M35.87,61.16h0"/><path class="cls-4" d="M35.8,61.16h0"/><path class="cls-4" d="M35.74,61.15h0"/><line class="cls-4" x1="35.67" y1="61.14" x2="35.66" y2="61.14"/><path class="cls-4" d="M35.5,61.1h0"/><path class="cls-4" d="M35.44,61.08h0"/><path class="cls-4" d="M35.38,61.06h0"/><path class="cls-4" d="M35.33,61h0"/><path class="cls-4" d="M35.27,61h0"/><path class="cls-4" d="M35.22,61l-.06,0-.08-.07"/><path class="cls-4" d="M35.07,60.87l0,0"/><path class="cls-4" d="M35,60.84l0,0"/><line class="cls-4" x1="34.97" y1="60.8" x2="34.96" y2="60.79"/><path class="cls-4" d="M34.93,60.75h0"/><path class="cls-4" d="M34.84,60.67l-.06-.09"/><path class="cls-4" d="M34.76,60.56s0,0,0,0"/><path class="cls-4" d="M34.73,60.52l0,0"/><path class="cls-4" d="M34.7,60.46a0,0,0,0,1,0,0"/><line class="cls-4" x1="34.67" y1="60.4" x2="34.66" y2="60.39"/><path class="cls-4" d="M34.63,60.34a0,0,0,0,0,0,0"/><path class="cls-4" d="M34.6,60.29l-.11-.3"/><path class="cls-4" d="M34.45,59.8c-.09-.6-.09-2.94-.07-4v-5"/><path class="cls-4" d="M34.38,57.77a8.63,8.63,0,0,0,.07,2,.25.25,0,0,0,0,.08l0,.11"/><path class="cls-4" d="M34.6,60.29a.08.08,0,0,1,0,0"/><path class="cls-4" d="M34.63,60.34s0,0,0,0"/><path class="cls-4" d="M34.67,60.4l0,0"/><path class="cls-4" d="M34.7,60.46v0"/><line class="cls-4" x1="34.73" y1="60.52" x2="34.74" y2="60.53"/><path class="cls-4" d="M34.76,60.56l0,0"/><path class="cls-4" d="M34.84,60.67l0,0"/><path class="cls-4" d="M34.88,60.71l0,0"/><path class="cls-4" d="M34.93,60.75l0,0"/><path class="cls-4" d="M35,60.8l0,0"/><line class="cls-4" x1="35.02" y1="60.84" x2="35.04" y2="60.85"/><path class="cls-4" d="M35.07,60.87a0,0,0,0,0,0,0"/><path class="cls-4" d="M35.22,61l0,0"/><path class="cls-4" d="M35.27,61l0,0"/><path class="cls-4" d="M35.33,61s0,0,0,0"/><path class="cls-4" d="M35.38,61.06h0"/><path class="cls-4" d="M35.44,61.08s0,0,0,0"/><path class="cls-4" d="M35.5,61.1l.16,0"/><path class="cls-4" d="M35.67,61.14h0"/><path class="cls-4" d="M35.74,61.15h0"/><path class="cls-4" d="M35.8,61.16h0"/><line class="cls-4" x1="35.87" y1="61.16" x2="35.88" y2="61.16"/><path class="cls-4" d="M36.06,61.16h.08a2,2,0,0,0,.64-.15h0c.2-.1.41-.2.61-.32"/><polyline class="cls-4" points="37.55 60.6 40.11 59.12 41.54 58.3"/><line class="cls-4" x1="50.13" y1="53.34" x2="51.5" y2="52.55"/><path class="cls-4" d="M52.16,52.17c.32-.19.65-.36,1-.55l.31-.22"/><path class="cls-4" d="M53.52,51.32a5.07,5.07,0,0,0,.6-.55l0-.05a2.79,2.79,0,0,0,.28-.32l.07-.08a6.68,6.68,0,0,0,1.3-2.89"/><path class="cls-4" d="M55.81,47.38a0,0,0,0,0,0,0"/><path class="cls-4" d="M55.83,47.29v0"/><path class="cls-4" d="M55.84,47.19c0-.08,0-.17,0-.24"/><path class="cls-4" d="M55.86,46.9v0"/><path class="cls-4" d="M55.86,46.82v-.1"/><path class="cls-4" d="M55.86,39.8v-.1a7,7,0,0,0-.08-1.93.19.19,0,0,0,0-.08"/><path class="cls-4" d="M55.75,37.58a2.24,2.24,0,0,0-.12-.29"/><path class="cls-4" d="M55.61,37.24h0"/><path class="cls-4" d="M55.59,37.19v0"/><path class="cls-4" d="M55.56,37.14v0"/><path class="cls-4" d="M55.52,37.09v0"/><path class="cls-4" d="M55.49,37l0,0"/><path class="cls-4" d="M55.46,37a.31.31,0,0,0-.07-.09"/><path class="cls-4" d="M55.32,36.83v0"/><path class="cls-4" d="M55.29,36.79l0,0"/><path class="cls-4" d="M55.24,36.75h0"/><path class="cls-4" d="M55.2,36.72l0,0"/><path class="cls-4" d="M55.17,36.69,55,36.6"/><path class="cls-4" d="M55,36.58h0"/><path class="cls-4" d="M54.94,36.56l0,0"/><path class="cls-4" d="M54.89,36.52h0"/><path class="cls-4" d="M54.84,36.51l0,0"/><path class="cls-4" d="M54.79,36.49l0,0"/><path class="cls-4" d="M54.58,36.44h0"/><path class="cls-4" d="M54.53,36.43s0,0,0,0"/><path class="cls-4" d="M54.48,36.41h0"/><path class="cls-4" d="M54.42,36.41h0"/><path class="cls-4" d="M54.37,36.4h-.25a2.41,2.41,0,0,0-1,.32l-.32.17-.12.08"/><path class="cls-4" d="M38.74,45c-.6.36-1.23.66-1.79,1.07l-.13.08-.1.07"/><path class="cls-4" d="M36.13,46.81a4.19,4.19,0,0,0-.39.45"/><path class="cls-4" d="M34.44,50.14s0,0,0,0"/><path class="cls-4" d="M34.43,50.22a.17.17,0,0,0,0,.07"/><path class="cls-4" d="M34.42,50.31a.17.17,0,0,0,0,.07"/><path class="cls-4" d="M34.39,50.63v0"/><path class="cls-4" d="M34.39,50.71a.07.07,0,0,0,0,0"/><path class="cls-4" d="M35.16,61l-6-3.49-2.81-1.63a14.89,14.89,0,0,1-7-7.85c-.45-1.08-.83-2.18-1.24-3.27s-.82-2.18-1.22-3.26C15.24,37.1,13.59,32.74,12,28.38c-.4-1.08-.8-2.16-1.19-3.25A14.82,14.82,0,0,1,10,21.72c-.14-1.4-.05-5.58-.05-7"/><path class="cls-5" d="M50.13,38.45l-5.55-3.21-.4-.22L44.07,35l-.1-.07-.1,0a1.1,1.1,0,0,0-.14-.09l-.22-.12c-.17-.11-.33-.22-.51-.32a9,9,0,0,1-1.29-1.18,10.34,10.34,0,0,1-1.12-1.53,5.45,5.45,0,0,1-.35-.62l-.14-.26L40,30.54c-2-3.77-3.92-7.53-5.87-11.31l-.08-.13-.1-.18c-.2-.4-.38-.82-.54-1.24s-.22-.73-.31-1.1a6.21,6.21,0,0,1-.15-1c0-.07,0-.14,0-.21v-5"/><line class="cls-4" x1="50.13" y1="53.34" x2="50.13" y2="38.46"/><path class="cls-4" d="M40.11,44.24q5-2.91,10-5.78h0L52.69,37"/><path class="cls-5" d="M40.1,44.24s0,0,0,0"/><path class="cls-4" d="M38.74,45l1.36-.78"/><path class="cls-4" d="M14.33,11.16l1.23-.71L17,9.64l6.78-3.91.61-.36,1.24-.71c.17-.1.34-.21.52-.3l.75-.44.5-.27.27-.15.17-.08.14-.06a3.75,3.75,0,0,1,.43-.16,5.66,5.66,0,0,1,1.13-.28l.44-.07.58,0a2.92,2.92,0,0,1,.51,0,3.7,3.7,0,0,1,.48.09l.49.21.66.39c.21.13.44.24.67.37l.66.39.67.38.33.2.33.19.33.2c.11.06.23.11.34.18l.23.14.29.16.27.18.19.13a.92.92,0,0,1,.14.14.38.38,0,0,1,.11.14,1.6,1.6,0,0,1,.1.23.78.78,0,0,1,0,.26,1.25,1.25,0,0,1-.16.56,2.14,2.14,0,0,1-.43.56,4.17,4.17,0,0,1-.69.55l-.46.28-.9.52-.79.46-.8.46-.16.1-1.44.82L24.88,15l-1.35.78-.6.36-1.24.71-.53.31-.75.43-.5.28-.19.1-.11.06-.22.1c-.24.1-.48.18-.71.26s-.45.13-.67.17a5.46,5.46,0,0,1-.69.1h0l-.52,0a4.87,4.87,0,0,1-.65-.05,3.69,3.69,0,0,1-.45-.11,1.84,1.84,0,0,1-.38-.17c-.31-.19-.63-.36-.94-.54-.57-.34-1.15-.68-1.72-1L11.29,16c-.09,0-.16-.09-.25-.14l-.27-.15a2,2,0,0,1-.34-.23,1.24,1.24,0,0,1-.23-.17l-.12-.14A.82.82,0,0,1,10,15a1.43,1.43,0,0,1,0-.22v-.17a1.36,1.36,0,0,1,.13-.42,1.92,1.92,0,0,1,.28-.42,2.67,2.67,0,0,1,.54-.52,8.28,8.28,0,0,1,.79-.52l.7-.4L13,12l1.36-.78"/><line class="cls-4" x1="32.95" y1="10.34" x2="24.35" y2="5.37"/></g></g></svg>