<?xml version="1.0" encoding="utf-8"?>
<!-- Generator: Adobe Illustrator 19.1.0, SVG Export Plug-In . SVG Version: 6.00 Build 0)  -->
<svg version="1.1" id="Layer_2" xmlns="http://www.w3.org/2000/svg" xmlns:xlink="http://www.w3.org/1999/xlink" x="0px" y="0px"
	 width="1000px" height="919px" viewBox="0 0 1000 919" enable-background="new 0 0 1000 919" xml:space="preserve">
<g>
	<path fill="#fff" d="M783.1,459.8V226L580.6,109.1l-99.2,57.3l-99.2-57.3L179.8,226v233.7l301.7,174.1L783.1,459.8z
		 M674.8,506.1l-84.2-48.6l84.2-48.6V506.1z M674.8,391.5l-84.2-48.6l84.2-48.6V391.5z M774.1,448.8l-84.2-48.6l84.2-48.6V448.8z
		 M774.1,334.2l-84.2-48.6l84.2-48.6V334.2z M684.8,179.7l84.2,48.6l-84.2,48.6V179.7z M684.8,294.2l84.2,48.6l-84.2,48.6V294.2z
		 M684.8,408.8l84.2,48.6l-84.2,48.6V408.8z M674.8,276.9l-84.2-48.6l84.2-48.6V276.9z M585.6,122.4l84.2,48.6l-84.2,48.6V122.4z
		 M585.6,237l84.2,48.6l-84.2,48.6V237z M585.6,351.5l84.2,48.6l-84.2,48.6V351.5z M585.6,466.1l84.2,48.6l-84.2,48.6V466.1z
		 M486.4,620.3v-97.2l84.2,48.6L486.4,620.3z M575.6,563.3l-84.2-48.6l84.2-48.6V563.3z M575.6,448.8l-84.2-48.6l84.2-48.6V448.8z
		 M575.6,334.2l-84.2-48.6l84.2-48.6V334.2z M575.6,122.4v97.2L491.4,171L575.6,122.4z M486.4,179.7l84.2,48.6l-84.2,48.6V179.7z
		 M486.4,294.3l84.2,48.6l-84.2,48.6V294.3z M486.4,408.8l84.2,48.6l-84.2,48.6V408.8z M288,179.7l84.2,48.6L288,276.9V179.7z
		 M288,294.3l84.2,48.6L288,391.5V294.3z M188.8,237l84.2,48.6l-84.2,48.6V237z M188.8,351.5l84.2,48.6l-84.2,48.6V351.5z
		 M278,506.1l-84.2-48.6l84.2-48.6V506.1z M278,391.5l-84.2-48.6l84.2-48.6V391.5z M278,276.9l-84.2-48.6l84.2-48.6V276.9z
		 M288,408.8l84.2,48.6L288,506.1V408.8z M377.2,563.3L293,514.7l84.2-48.6V563.3z M377.2,448.8L293,400.2l84.2-48.6V448.8z
		 M377.2,334.2L293,285.6l84.2-48.6V334.2z M377.2,219.7L293,171l84.2-48.6V219.7z M387.2,122.4l84.2,48.6l-84.2,48.6V122.4z
		 M476.4,179.7v97.2l-84.2-48.6L476.4,179.7z M387.2,237l84.2,48.6l-84.2,48.6V237z M476.4,294.2v97.2l-84.2-48.6L476.4,294.2z
		 M387.2,351.5l84.2,48.6l-84.2,48.6V351.5z M476.4,408.8v97.2l-84.2-48.6L476.4,408.8z M387.2,466.1l84.2,48.6l-84.2,48.6V466.1z
		 M476.4,620.3l-84.2-48.6l84.2-48.6V620.3z"/>
</g>
</svg>
